inDegrees=no
num_controls=7
num_derivatives=13
num_iterations=154
num_multipliers=7
num_parameters=0
num_slacks=7
num_states=26
objective=0.499321
objective_accelerations=0.038328
objective_balance=0.003392
objective_effort=0.037035
objective_height=0.414528
objective_ligament=0.006039
solver_duration=1912.062636
status=Solve_Succeeded
success=true
DataType=double
version=3
OpenSimVersion=4.5
endheader
time	/jointset/ground_pelvis/pelvis_tilt/value	/jointset/ground_pelvis/pelvis_tx/value	/jointset/ground_pelvis/pelvis_ty/value	/jointset/hip_r/hip_flexion_r/value	/jointset/hip_r/hip_adduction_r/value	/jointset/hip_r/hip_rotation_r/value	/jointset/back/lumbar_extension/value	/jointset/patellofemoral_r/patellar_flexion_r/value	/jointset/knee_r/knee_flexion_r/value	/jointset/knee_r/knee_adduction_r/value	/jointset/knee_r/knee_rotation_r/value	/jointset/ankle_r/ankle_angle_r/value	/jointset/subtalar_r/subtalar_angle_r/value	/jointset/ground_pelvis/pelvis_tilt/speed	/jointset/ground_pelvis/pelvis_tx/speed	/jointset/ground_pelvis/pelvis_ty/speed	/jointset/hip_r/hip_flexion_r/speed	/jointset/hip_r/hip_adduction_r/speed	/jointset/hip_r/hip_rotation_r/speed	/jointset/back/lumbar_extension/speed	/jointset/patellofemoral_r/patellar_flexion_r/speed	/jointset/knee_r/knee_flexion_r/speed	/jointset/knee_r/knee_adduction_r/speed	/jointset/knee_r/knee_rotation_r/speed	/jointset/ankle_r/ankle_angle_r/speed	/jointset/subtalar_r/subtalar_angle_r/speed	/forceset/tau_hip_flexion_r	/forceset/tau_hip_adduction_r	/forceset/tau_hip_rotation_r	/forceset/tau_knee_flexion_r	/forceset/tau_ankle_angle_r	/forceset/tau_subtalar_angle_r	/forceset/tau_lumbar_extension	lambda_cid13_p0	lambda_cid14_p0	lambda_cid14_p1	lambda_cid14_p2	lambda_cid14_p3	lambda_cid14_p4	lambda_cid14_p5	/jointset/ground_pelvis/pelvis_tilt/accel	/jointset/ground_pelvis/pelvis_tx/accel	/jointset/ground_pelvis/pelvis_ty/accel	/jointset/hip_r/hip_flexion_r/accel	/jointset/hip_r/hip_adduction_r/accel	/jointset/hip_r/hip_rotation_r/accel	/jointset/back/lumbar_extension/accel	/jointset/patellofemoral_r/patellar_flexion_r/accel	/jointset/knee_r/knee_flexion_r/accel	/jointset/knee_r/knee_adduction_r/accel	/jointset/knee_r/knee_rotation_r/accel	/jointset/ankle_r/ankle_angle_r/accel	/jointset/subtalar_r/subtalar_angle_r/accel	gamma_cid13_p0	gamma_cid14_p0	gamma_cid14_p1	gamma_cid14_p2	gamma_cid14_p3	gamma_cid14_p4	gamma_cid14_p5
1.5	-0.1217993227721515	0.05654512551191725	0.8634951606749948	0.7039281096032375	-0.241338822776869	-0.1185878023296301	-0.2771056642563145	0.6755958309929095	0.6755958309925761	0.07492324991078408	0.1745310858397991	0.2591422966901049	0.04011160125149131	0.2634521938031683	0.1330031306819514	0.3566413006754651	-1.560374226416686	0.04305165320042745	-0.3956866385881131	0.6994575871309826	-1.834606755253586	-1.834606755253561	0.1604360321511666	-1.356290926530782e-05	-0.6212392757461557	-0.10540485788987	-0.07212451015479511	-0.02086835731522721	0.01063184855922146	-0.3283559840532961	0.0575074662203908	-0.01388530901536252	0.1258215904776729	-32.71927139880706	-23.16901343386474	-5.862490576780143	-3.430928883125874	3.642695333283078	-658.5926980901164	57.76952696255705	0.1112432712225377	0.2722917837378669	-0.4983427374550098	-0.6986603306792689	0.1004258868185513	-0.2804764480204863	1.165369828321088	-0.9885078657043392	-0.9885078657043235	0.5180156320889913	-0.02854435526614032	-0.4837758866238661	0.04964623316805896	1.25905577487827e-07	4.074691064663211e-08	-1.490128546014863e-06	5.444927258637441e-07	1.337876467238259e-07	1.147754028388134e-07	-1.037506779378878e-06
1.51	-0.1191596428490556	0.05788856152042289	0.8670358802302521	0.6882915354178143	-0.2409039397630099	-0.1225593504672985	-0.2700538609862601	0.6572029600118364	0.6572029600119256	0.07655421217841898	0.1745310506214833	0.2529063832499477	0.03905932170020832	0.2644479749109893	0.135660177430262	0.3514286668089662	-1.566717963726914	0.04391861695179107	-0.398590853750678	0.710788150249312	-1.843696349021557	-1.843696349021513	0.1657566364078006	3.477948862439824e-06	-0.6258527651520689	-0.1050383444327305	-0.06641563937704961	-0.02288004835096768	0.01007673955502727	-0.3250239094825148	0.06127340747159609	-0.01496336999749319	0.1205199922502318	-33.71540078751828	-21.83719572990783	-5.992497080390684	-3.530141705022068	3.211087258058185	-655.2669118897543	57.77094208823088	0.08837725814654955	0.2588564612950277	-0.5437942541257542	-0.568829184761861	0.07882711770395472	-0.2903993219787503	1.099662059002783	-0.8285484533935871	-0.8285484533906706	0.5389134666222304	0.01645986545862497	-0.436507018740811	0.031877517644397	1.322773836711679e-07	3.884756242904509e-08	-1.555052055297872e-06	5.585288053115054e-07	1.424393460951717e-07	1.082978211934168e-07	-1.072050486245353e-06
1.52	-0.1165110787693652	0.05925785706459512	0.8705222593382688	0.6725982041085751	-0.2404605880119561	-0.126558941810913	-0.2628921995839396	0.6387273204288737	0.6387273204293856	0.07823834661745334	0.1745311121235699	0.2466270606054983	0.03801105200662817	0.265229025122198	0.1381750378152691	0.3457732112273298	-1.571725651179836	0.0447454006395031	-0.4012952797774138	0.7214292135841984	-1.85116047563153	-1.851160475631466	0.1710704664313002	5.781171245815464e-06	-0.6299211166046125	-0.1046028863492912	-0.0607067685993041	-0.02489173938670981	0.00952163055083388	-0.3216918349117339	0.06503934872280064	-0.01604143097962623	0.1152183940227911	-34.68059012752965	-20.51349421401002	-6.12047703983295	-3.633615883645962	2.780695323215054	-652.0760689200275	57.82864559680362	0.06829709190005319	0.2438545110771483	-0.5869070804824799	-0.4314503592182834	0.09238987408823078	-0.2405186208546769	1.027469871632474	-0.6634144341045014	-0.6634144341044819	0.5166607854621108	-0.03149188241501497	-0.3747482959499323	0.06343515842800695	1.386071405397751e-07	3.704268700861277e-08	-1.621264048740448e-06	5.715138259264965e-07	1.506457073475501e-07	1.030960048556402e-07	-1.106297059771048e-06
1.53	-0.1138558458245893	0.06065157844719674	0.8739499411251562	0.6568615075048863	-0.2400092013170194	-0.1305847158668061	-0.2556275272211808	0.620185179875296	0.6201851798754068	0.07997557542412308	0.1745312475916372	0.2403098056110225	0.03696745694732539	0.2657787191008331	0.1405440109739419	0.3396972406764149	-1.575391205773694	0.04552484092797549	-0.4038285986298379	0.731390061289261	-1.856996987763047	-1.856996987763013	0.1763722298382466	1.89163827143694e-05	-0.6334364052777657	-0.1041039395258494	-0.05496272110122989	-0.02702032370184093	0.008924535586169858	-0.3185228520117903	0.06900555684997685	-0.01721868526090028	0.1099276420678152	-35.60988214512652	-19.14344432521812	-6.28734670609281	-3.726406059113556	2.323957213505769	-649.110992224046	57.85764744086085	0.04248285852247882	0.2296670623740255	-0.6278084253462086	-0.3007346868000909	0.06958726929832409	-0.2549141985398819	0.96311256820358	-0.5032021559258916	-0.5032021559304627	0.536254349749844	0.01745211376373827	-0.3258644726418266	0.0447512565787368	1.448922200114779e-07	3.53381889351573e-08	-1.688845056602564e-06	5.833820965316695e-07	1.583788968485258e-07	9.924968915720965e-08	-1.140227929122165e-06
1.54	-0.1111962804784924	0.06206823923020745	0.8773148899299444	0.6410948300197923	-0.2395502469865843	-0.1346348582474438	-0.2482667023117194	0.6015927876897529	0.6015927876894623	0.08176568591114899	0.1745314615899864	0.2339602086658864	0.03592917671871227	0.2660955053865594	0.1427629178970837	0.3332266148074906	-1.577721827460774	0.04625892773931187	-0.4061689447264065	0.7406597229247411	-1.861210802024588	-1.861210802024585	0.1816468025027508	2.148722762071891e-05	-0.6363895067366716	-0.1035399202113489	-0.04921867360315514	-0.02914890801697312	0.008327440621506891	-0.315353869111847	0.07297176497715251	-0.01839593954217584	0.1046368901128402	-36.49830175726254	-17.78259135432843	-6.452249644586246	-3.82359589715554	1.870337505031848	-646.2986782019401	57.94625340604176	0.02171555331829539	0.2138412639709644	-0.6658381440843559	-0.1644637778628358	0.08331917866102928	-0.201924069683569	0.8892326577159984	-0.3388748601094145	-0.3388748601093983	0.5112226369736489	-0.03360475572745665	-0.2623108531004681	0.0764496566397532	1.510550505529716e-07	3.366522329582879e-08	-1.752494459736864e-06	5.946870272371768e-07	1.65585238813039e-07	9.524896705243508e-08	-1.171055302202063e-06
1.55	-0.1085347693810887	0.06350631553394748	0.8806132296621363	0.6253115795174691	-0.2390841972862772	-0.1387075398257978	-0.2408166138344064	0.5829664110428218	0.5829664110425896	0.08360838389228978	0.1745317381616845	0.2275839144200971	0.03489685492681689	0.2661662180089051	0.1448246951704964	0.3263833982312675	-1.578703727989936	0.04694385140740599	-0.4083347836631125	0.749239740345567	-1.863791620871666	-1.863791620871748	0.1868849925225421	3.002895585563876e-05	-0.6387733367849719	-0.1029119092677675	-0.04346518793510232	-0.0313595135920222	0.007687926643989997	-0.3122658390523497	0.07703443635035434	-0.01967882460497077	0.09937086358737771	-37.34085674544958	-16.40823777851084	-6.664945436751931	-3.908275722527315	1.422773134326957	-643.6929157288748	57.98464594070263	-0.006321402845652163	0.1982339771372881	-0.702235674553002	-0.03136814745881304	0.05992120528805422	-0.2188332189068531	0.8246514554225051	-0.1767815080272872	-0.1767815080399812	0.5287108535625773	0.01761718563836049	-0.2119837656239638	0.05763894322358371	1.57077029066181e-07	3.202858850451613e-08	-1.811613970467373e-06	6.053428924061128e-07	1.721845607898892e-07	9.10703419142641e-08	-1.198306907839036e-06
